Simulation
nRows=45
nColumns=15
endheader
time  TH_x TH_y TH_z SC_y  SC_z  SC_x  AC_y  AC_z  AC_x  GH_y  GH_z  GH_yy  EL_x  PS_y
0.0  0.000000  0.000000  0.000000  -32.45791451626705  13.235744356528512  5.791451094005426  88.3924900646941  -9.682184029602604  14.67543190543071  167.42202380175564  35.12628639458331  -128.9896540894187  55.89188842070087  0.000000
0.015  0.000000  0.000000  0.000000  -32.91281582018169  14.694231061577776  6.940147958028768  86.76191166339817  -8.516281490685484  13.697849529554214  170.1297594453089  35.1560183838414  -130.51376783903441  55.305250007860415  0.000000
0.03  0.000000  0.000000  0.000000  -34.94044012292386  16.62076167600688  8.420000734539936  85.83487789757964  -7.877146398318808  13.043975631888317  171.49505980220684  35.10824908579838  -131.8494248118502  54.73599827393299  0.000000
0.045  0.000000  0.000000  0.000000  -35.91034885403899  15.307597302211086  8.891419987619887  84.72319259137988  -7.434485157399641  12.49063517990187  169.91538826508236  35.146686966437066  -131.37185404432057  55.16116682396412  0.000000
0.06  0.000000  0.000000  0.000000  -37.13159614680838  16.922029301053367  10.87843873358842  83.83721263873431  -7.091765460286223  12.448826226315896  169.67765500738588  36.50522972291375  -131.45550896808848  55.662078894881645  0.000000
0.075  0.000000  0.000000  0.000000  -38.04847763532763  15.141423574021614  10.382239122913255  82.75533413311778  -7.106001017511562  11.64659831426747  168.63975270644474  38.997923643973635  -129.4685072547164  56.02233352195929  0.000000
0.09  0.000000  0.000000  0.000000  -38.3202258729917  13.00566906516009  8.4352942077938  80.4230804534172  -7.124773602466145  9.989723210405563  168.76665198012412  40.57653243229335  -130.95638149136678  56.51080484400768  0.000000
0.105  0.000000  0.000000  0.000000  -38.98589788929042  13.497990174744858  8.589227551878544  79.95248226204517  -7.211346335896165  9.49106826361451  168.19242844765625  43.335892531527534  -132.15491099511777  57.245428919205374  0.000000
0.12  0.000000  0.000000  0.000000  -39.5462996541561  13.097364013431145  8.241629290406099  78.01976081287235  -7.121685466196405  8.979029134650379  168.4160002727189  44.302826699931494  -131.7277156979555  57.231588449243084  0.000000
0.135  0.000000  0.000000  0.000000  -40.79788068399893  14.292718724065304  8.458958355160812  76.0677049874668  -6.912704468078403  8.63511364768644  169.74518929438548  44.40700225839201  -132.89507261613437  56.809693718432875  0.000000
0.15  0.000000  0.000000  0.000000  -41.09663449572507  14.532396399210675  8.912177519311369  75.76667893619812  -6.677536869423517  8.85478000474481  168.75728921859235  46.13939822831421  -132.71572427494573  57.13803827099653  0.000000
0.16499999999999998  0.000000  0.000000  0.000000  -40.86186319485114  14.780022751245115  9.104701139281618  74.22753680886895  -6.631599283814623  8.7935772564483  167.96894036551566  45.49688189025004  -133.08711831127624  57.763487061068254  0.000000
0.18  0.000000  0.000000  0.000000  -41.581013086959935  14.049953311290052  8.893784258484317  72.76049496280051  -6.9688734468096225  8.5007375728825  167.44055302998143  45.282130355001044  -132.4933820115343  58.23819978707546  0.000000
0.195  0.000000  0.000000  0.000000  -42.63394350646334  14.395837808725469  8.788641157163363  71.3234307195733  -7.369248121787581  7.939078656236118  167.86156495169013  45.70373791823853  -132.24997048905436  58.55767119720622  0.000000
0.21  0.000000  0.000000  0.000000  -43.15949377468304  15.09816004952411  8.481002668060182  69.17511851856148  -7.380454471701008  7.073247615812509  169.10481352607815  45.04959885332256  -132.61009928406648  58.5777412738064  0.000000
0.22499999999999998  0.000000  0.000000  0.000000  -43.80197176606057  15.029603531835985  8.2209214817884  67.54767173170434  -7.371465197095388  6.438834356308486  169.28454284877563  44.58726492390521  -132.57362530907844  58.599142570539726  0.000000
0.24  0.000000  0.000000  0.000000  -44.73945456821648  14.60500597539272  8.380488695390785  66.56454898099551  -7.762419971879799  6.151273881936419  168.8138331019999  44.996501290777196  -132.25292975283088  58.49219518969523  0.000000
0.255  0.000000  0.000000  0.000000  -45.01474168401369  15.267996828526533  8.599148275065161  64.93839213446633  -8.010145734337684  5.799589263013081  169.70741699839454  44.50357557104457  -132.85334000884245  57.75629976231725  0.000000
0.27  0.000000  0.000000  0.000000  -44.84255370383573  15.31283961756407  8.512375197162058  64.05593309322914  -7.866477342947709  5.564500050675876  169.56555939430422  44.466433188705246  -132.38534249393632  56.95046892416741  0.000000
0.285  0.000000  0.000000  0.000000  -44.11869590951343  14.58526564072957  8.27171759452342  64.62055878957281  -7.356438544864119  5.73555681571398  168.90544293368492  44.928835263845954  -132.05325608308377  56.338172676032585  0.000000
0.3  0.000000  0.000000  0.000000  -44.10772186366056  14.65324627851864  8.23802468320017  66.6129448080962  -7.3122017438645885  5.884753586241216  169.50545444170237  47.86087980129443  -132.22266323254505  55.80574986312548  0.000000
0.315  0.000000  0.000000  0.000000  -44.90451265010809  15.519266600627896  8.34390281412607  67.21155286690077  -7.383595570768948  5.702368308743356  171.06881066903077  49.74942882937295  -132.63533845837557  54.738754171907196  0.000000
0.32999999999999996  0.000000  0.000000  0.000000  -44.56798655972832  15.754245459362203  8.345363499844035  65.80949398448183  -7.1530933607144345  5.7833681490858835  172.99680305299697  48.53447574660572  -133.86177314107647  53.400392311521465  0.000000
0.345  0.000000  0.000000  0.000000  -45.02961647507296  15.206531236466095  8.351590394311266  65.15415228823095  -7.006284814773061  5.989413969418223  172.76752766641476  48.562886046954326  -133.4697865192907  52.49916901531476  0.000000
0.36  0.000000  0.000000  0.000000  -45.86603768765727  14.784153707469121  8.294591126044127  64.14988831729877  -6.537300024604993  6.0117848706325185  171.81640758908745  47.72664648427821  -132.81803250478683  51.4900074609833  0.000000
0.375  0.000000  0.000000  0.000000  -45.7751868368099  14.587257226793028  8.360294671063224  63.62590737852323  -6.076896489501887  5.853221851054403  171.9144877709264  46.88386241842676  -133.00697591039182  50.45431033117615  0.000000
0.39  0.000000  0.000000  0.000000  -45.613547470916195  14.467852032361494  8.619369901137434  64.37949311819163  -6.015852232998246  5.629057957654237  172.18915783244603  47.869497024473326  -132.85009148314788  49.48698016932982  0.000000
0.40499999999999997  0.000000  0.000000  0.000000  -45.3227222002755  13.978881090472571  8.848340073157475  64.72149249848646  -5.911442802670207  5.46411348859527  171.7438450278727  47.88768388058824  -132.61680989557783  48.46251665239179  0.000000
0.42  0.000000  0.000000  0.000000  -45.282731037119504  13.523466708705703  9.098288071199052  64.73921839016545  -5.727376324816582  5.295696777425736  170.93931299778652  47.4299670338102  -132.33884982066186  47.55396928317279  0.000000
0.435  0.000000  0.000000  0.000000  -45.45247514870743  13.208004313559737  9.290563639079748  64.70415647030681  -5.656817937110038  5.1251446078877025  170.62494609406284  48.01476362752137  -131.79582293052476  46.85292485067792  0.000000
0.44999999999999996  0.000000  0.000000  0.000000  -45.5487759606791  12.950449501799246  9.19850946489198  64.60953328224304  -5.680827299631428  4.878240008499208  170.9644829705893  48.51347834067279  -131.63089677640883  46.33559136979792  0.000000
0.46499999999999997  0.000000  0.000000  0.000000  -45.757973726886846  12.903846298360724  9.246415715068945  64.04056048201699  -5.742472076355146  4.606509194039232  171.02478414736166  48.55563846118314  -131.35319045867584  45.96846446943239  0.000000
0.48  0.000000  0.000000  0.000000  -45.95696830490236  12.908619126519955  9.531548806727253  63.21934950553662  -5.933896268180418  4.292290607449895  170.38736464498317  48.007818531335026  -130.9650616492219  45.77587693214389  0.000000
0.495  0.000000  0.000000  0.000000  -45.978904579880584  12.840114323387061  9.519788768194577  62.81130376649281  -6.255101085637478  3.878866624332176  170.1742025507841  47.86873131465661  -131.0142629013837  45.81614019913779  0.000000
0.51  0.000000  0.000000  0.000000  -45.80064789315824  12.88901928479633  9.037760278630358  62.22411760487967  -6.621148947273612  3.468382585378143  170.87672761447809  48.036455774071015  -131.51613404431782  45.92432433541226  0.000000
0.525  0.000000  0.000000  0.000000  -45.60960996103775  12.89867856995931  8.693356913608515  61.678655154118566  -6.913979439559387  3.1647005308257805  171.08547731779657  47.90623944564708  -131.77920781277737  46.08682411444377  0.000000
0.54  0.000000  0.000000  0.000000  -45.825037171530305  12.776167059472327  8.928644988679958  61.80486788571812  -7.104471183476668  3.1480789762815884  169.95870967947624  48.95929979779337  -131.06227110707067  46.53872637404638  0.000000
0.5549999999999999  0.000000  0.000000  0.000000  -45.99120080546015  12.59428773671815  9.206036148791737  61.761234309732735  -7.316591043492598  3.277451338698848  168.86418035406103  50.32855601759962  -130.30790382823056  47.109288746562925  0.000000
0.57  0.000000  0.000000  0.000000  -45.45694332224858  12.185157230350768  8.858594597384018  61.603996625100486  -7.323805694317621  3.220382094542045  169.0265714336419  50.838386299970956  -130.17316406034632  47.47899735633836  0.000000
0.585  0.000000  0.000000  0.000000  -44.834562639679284  11.712415119990656  8.079469599218992  61.518046451337895  -7.109149286224297  2.9400335205736345  170.23921714849737  52.4387624217744  -129.9181504661288  47.693154087731585  0.000000
0.6  0.000000  0.000000  0.000000  -44.63271922067861  11.269614973412544  7.268129489427933  60.65661601627864  -6.836226246631778  2.7635005457330752  171.13917937415965  53.96645358675097  -129.33670299218835  47.804776703488265  0.000000
0.615  0.000000  0.000000  0.000000  -44.94953605736333  11.261530010940366  6.825010321844931  58.610026144866964  -6.56282305665435  2.7594921387460234  170.49155481127022  53.54613871735864  -128.0574308987681  47.90122051682185  0.000000
0.63  0.000000  0.000000  0.000000  -45.31671469107288  11.465966115267644  6.7181629708898525  56.23634726345402  -6.423269178234241  2.879756798330015  168.6359432045412  52.24172146579923  -125.71207547516039  48.01268947371039  0.000000
0.645  0.000000  0.000000  0.000000  -45.41816511521217  10.680302488304022  6.222023543622177  55.650189666530636  -6.573249481169061  2.8784544735895516  167.29000625957616  52.16832552030698  -123.63386888944365  48.003147022812264  0.000000
0.6599999999999999  0.000000  0.000000  0.000000  -46.02490252857554  9.159125140359091  5.0767571366342175  56.716787315524556  -7.606663542509941  2.7035815006167554  166.86732892107042  53.71868696737731  -122.53745134837621  48.07493372805778  0.000000
